# xmcd
#
# Track frame offsets:
#	150
#	4786
#	30261
#	45359
#	64923
#	79678
#	105444
#	133514
#	157011
#	198217
#	225394
#	234627
#	250057
#	270962
#	313134
#
# Disc length: 4425 seconds
#
# Revision: 1
# Processed by: cddbd v1.5.2PL0 Copyright (c) Steve Scherf et al.
# Submitted via: EasyCDDAExtractor 10.0.2.1
#
DISCID=ae11470f
DTITLE=Guns and Roses - Intex Osaka Hall 5 Osaka 21-07-07 Master Disc 1
DYEAR=2007
DGENRE=Hard Rock
TTITLE0=Intro
TTITLE1=Welcome To The Jungle
TTITLE2=It's So Easy
TTITLE3=Mr Brownstone
TTITLE4=Live And Let Die
TTITLE5=Robin Guitar Solo - Jam (Frank and Dizzy)
TTITLE6=Sweet Child O' Mine
TTITLE7=Better
TTITLE8=Knockin' On Heaven's Door
TTITLE9=You Could Be Mine
TTITLE10=Band Jam
TTITLE11=Dizzy Piano Solo (Angie)
TTITLE12=The Blues
TTITLE13=Band Jam - Richard Guitar Solo (Rock Bottom) - Guitar Duet w/Robin (B
TTITLE13=eautiful)
TTITLE14=Out Ta Get Me
EXTD=
EXTT0=
EXTT1=
EXTT2=
EXTT3=
EXTT4=
EXTT5=
EXTT6=
EXTT7=
EXTT8=
EXTT9=
EXTT10=
EXTT11=
EXTT12=
EXTT13=
EXTT14=
PLAYORDER=
